<svg xmlns="http://www.w3.org/2000/svg" viewBox="0 0 128.68 128.68"><defs><style>.cls-1,.cls-2{fill:#fdfdfd;}.cls-2{stroke:#1d1d1b;stroke-miterlimit:10;stroke-width:2px;}.cls-3{fill:#1d1d1b;}</style></defs><g id="Capa_2" data-name="Capa 2"><g id="Capa_3" data-name="Capa 3"><circle class="cls-1" cx="64.34" cy="64.34" r="64.34"/><circle class="cls-2" cx="64.33" cy="64.35" r="52.16"/><path class="cls-3" d="M51.37,78.23c1.64,4.8,5.49,8.56,15,8.56,7.11,0,10.27-2.88,10.27-6.42,0-3.78-1.89-5.93-15.85-8.82-17.78-3.72-23.89-10.86-23.89-20.2C36.94,41,44.59,31,64,31,84.29,31,91.5,41.83,91.88,50H75.77c-1-2.89-2.51-7.27-12.84-7.27-8,0-9.67,3.41-9.67,5.92,0,3.64,2.55,5.63,14.12,7.88,21.89,4.3,26.4,12.21,26.4,21.66,0,10.89-8.55,20.45-28.95,20.54-18.71.09-28.76-10.15-29.59-20.54Zm5.91-40.84V24.3H71V37.39ZM58.36,107V92.17H72.11V107Z"/></g></g></svg>