<svg xmlns="http://www.w3.org/2000/svg" viewBox="0 0 161.09 161.09"><defs><style>.cls-1{fill:#fdfdfd;stroke:#1d1d1b;stroke-miterlimit:10;}.cls-2{fill:#010101;}</style></defs><g id="Capa_2" data-name="Capa 2"><g id="Capa_3" data-name="Capa 3"><circle id="_2" data-name="2" class="cls-1" cx="80.54" cy="80.54" r="80.04"/><path class="cls-2" d="M80.54,155c-21.7-.6-39.64-8.62-54.14-24.42-2.79-3-4-5.92-3-10.27,1.7-7.59,4.5-14.32,11.09-18.77,5.64-3.8,11-4.7,17.62-.56,18.71,11.64,38.12,11.51,56.79-.14,6.43-4,11.67-3,17.08.48,8.22,5.37,10.76,14,12,23.09.31,2.25-1.46,3.47-2.66,4.87C120.83,146.07,102.34,154.37,80.54,155Z"/><path class="cls-2" d="M112.43,63.82a32.12,32.12,0,0,1-64.23,0,32.12,32.12,0,1,1,64.23,0Z"/></g></g></svg>