<svg xmlns="http://www.w3.org/2000/svg" viewBox="0 0 2418.12 1656.62"><defs><style>.cls-1{fill:#ebf3fa;}.cls-2{fill:#ffb27d;}.cls-3{fill:#163560;}.cls-4{fill:#8c9df4;}.cls-5{fill:#6f84dd;}.cls-6{fill:#2b478b;}.cls-7{fill:#233862;}.cls-8{fill:#e8945b;}.cls-9{fill:#ed7d2b;}.cls-10{fill:#f99746;}.cls-11{fill:#aec3ff;}.cls-11,.cls-18{opacity:0.5;}.cls-12{fill:#ffeddc;}.cls-13{fill:#db6a1d;}.cls-14{fill:#e5c1a1;}.cls-15{fill:#f9ddbf;}.cls-16{fill:#ffb93e;}.cls-17{fill:#ffa412;}.cls-18,.cls-19{fill:#e2810e;}.cls-20{fill:#ccd8ff;}.cls-21{fill:#a9baff;}</style></defs><g id="Capa_2" data-name="Capa 2"><g id="_лой_1" data-name="‘лой_1"><path class="cls-1" d="M2195.31,1651.79c-52.89,0-291.34.06-593.88,0l-262.72-.08-209.5-.1-119.32-.08c-532.48-.41-617.34,5.54-701.85.26-157.21,0-559.87-611-80.52-1012.12C413.65,483.9,174.76,277,483.93,121.53c203.31-102.21,351,77.35,596.41,12.66C1261.66,86.4,1298.54-25.71,1657,5.36c344.73,29.87,351.66,312.92,242.3,546.65-69,147.56,269.5,102,426.05,322.23C2592.58,1250.13,2197.68,1646.2,2195.31,1651.79Z"/><path class="cls-2" d="M1904.34,1257.26s20.54-.75,35.6-5.09c15.52-4.47,27.26-20.29,39.61-19.37,25.89,1.92,75.12-6.12,70.23,3s-34.58,6.78-38.09,12.19,42.32,19.22,55.58,21.66,62.77,8,61.07,14.58-67.7,37.34-106.67,29.13-109-22.25-109-22.25Z"/><path class="cls-3" d="M1362.94,269.91c-57.31-29.73-103.24-11.05-103.24-11.05-175.37-20.59-226.53,183.94-224.15,254.31s19.8,126.5-63.09,199.39c-98.78,86.87-75.8,201.67-24.57,242.34,22.19,17.64,51.24,30.93,82,40.94,38.06,12.39,78.71,19.77,112.21,24.15,18.48,2.42,34.76,3.93,47.25,4.85h0l5.75.41h0c12.6.85,20.07,1,20.07,1,1.43-75.56,34.79-114.19,76.52-131.65h0a151.39,151.39,0,0,1,30.1-9h0c28.5-5.46,58.18-3.7,82.8,1.09,35.16,6.86,60,19.88,56.37,26.9,20.42,4.9,38.39,6.9,54.1,6.32,23-.82,41.12-7.16,55.08-17.92C1698.71,803,1473.11,327.06,1362.94,269.91Z"/><path class="cls-4" d="M1375.24,738.09s132.29,18.88,178.09,80.78c57.87,78.21,114.79,298.71,156.21,338.18s214.57,98.35,214.57,98.35,6.39,38-13.47,49.58c-33.63,19.64-203.44,11.1-302-41.82-94.55-50.78-161.51-161.83-161.51-161.83Z"/><path class="cls-2" d="M663.94,1052.68s-27.64-51.7-53.39-55-72.37-21-69.41-11.1,32.53,13.55,34.88,19.55-45.31,10.38-58.79,10.12-45-4.07-44.61,2.72,53.79,39.59,93.61,39.33,87.24,19.47,87.24,19.47Z"/><path class="cls-4" d="M1126.07,1110.39s-20.54,32.92-55.73,69.71c-42.4,44.26-106.12,94.06-180.84,98.27-35.69,2-69.45-8.69-99.83-25.62l-.12,0c-86-47.86-145-145.37-145-145.37-11.89-44.48,9.85-70.4,9.85-70.4s183.42,54.75,201.89,49c74.36-23,126.34-217.61,170.31-279.79,36.88-52.15,165.58-68.11,165.58-68.11Z"/><path class="cls-5" d="M1070.34,1180.1c-42.4,44.26-106.12,94.06-180.84,98.27-35.69,2-69.45-8.69-99.83-25.62,3.46.78,91.9,19.92,133.31-40.63,42.26-61.79,90.92-161.56,141.83-122.23C1086.77,1106.86,1082.4,1143.71,1070.34,1180.1Z"/><path class="cls-4" d="M1528.21,1151.42a868.83,868.83,0,0,1-16.32,89.86c-11.72,50-32,69.63-40.79,76.08a28.35,28.35,0,0,1-4.32,2.72l-156.63,38.38L1255.08,1372l-173.65-51.87s-79.1-220.78-47.34-345.06,54.42-183.44,54.42-183.44,112.93-46,356.18-5.22C1444.69,786.36,1560.58,894.59,1528.21,1151.42Z"/><path class="cls-6" d="M1338.71,1651.71l-209.5-.1-119.32-.08c17.79-87.73,56.62-216.24,73.94-272,5.34-17.17,8.64-27.43,8.64-27.43h232.7s0,.89,0,2.62v.81c0,6,.2,19.88.64,40.28C1327,1446.7,1330.14,1538.33,1338.71,1651.71Z"/><path class="cls-6" d="M1601.43,1651.79l-262.72-.08-209.5-.1c-21.16-48.81,2.66-182.29,15.94-246.16.74-3.58,1.44-7,2.12-10.08l.65-3c3-13.67,4.93-21.84,4.93-21.84l34.34-3,12.35-1.08,28.8-2.49,91.79-8h0l5-.43,131.66-11.41s7.29,9.77,18.58,26.27c36.64,53.52,115.48,177.78,124.83,268.73C1600.66,1643.06,1601.05,1647.28,1601.43,1651.79Z"/><path class="cls-5" d="M1475.43,1136.66c21.11,38.2,46.33,57,46.33,57-6.12,85-41.85,117.29-50.66,123.74l-4.33,1.27-136.29,13.19s60.44-21.17,72.39-59.85-7.37-88,8.47-148.21C1425.28,1070.73,1438.47,1069.76,1475.43,1136.66Z"/><path class="cls-7" d="M1078.74,1310.83s34.52,27.31,103.11,28.69c81.92,1.65,284.92-20.89,284.92-20.89s9,25.2,8.65,51.81c0,0-247.93,62.54-391.58,9.14C1083.84,1379.58,1065.31,1344.72,1078.74,1310.83Z"/><path class="cls-5" d="M1199.54,1366.45a46.16,46.16,0,0,0-1.78-11.62h0c-.25-.91-.53-1.79-.86-2.67a42.73,42.73,0,0,0-6.87-12.54c-6.84-8.66-16.79-14.11-27.84-14.11a34.6,34.6,0,0,0-23.41,9.36c-.64.57-1.25,1.17-1.85,1.8a42.53,42.53,0,0,0-9.45,15.49,46.36,46.36,0,0,0-2.68,15.66,45.85,45.85,0,0,0,7.22,25,39.17,39.17,0,0,0,13.13,12.69,33.53,33.53,0,0,0,17,4.66,34.78,34.78,0,0,0,24.57-10.44,44.71,44.71,0,0,0,12.81-31.86C1199.57,1367.37,1199.57,1366.9,1199.54,1366.45Zm-12.35,1.36c0,15.64-10.1,28.53-22.9,29.8h-.06a15.41,15.41,0,0,1-2,.12,20.77,20.77,0,0,1-7.17-1.26h0a23.06,23.06,0,0,1-7.07-4.13c-6.48-5.41-10.72-14.39-10.72-24.53a34,34,0,0,1,3.72-15.66,27.31,27.31,0,0,1,10.3-11.22,21.48,21.48,0,0,1,8.13-2.85,19.09,19.09,0,0,1,2.84-.2,20.9,20.9,0,0,1,6.46,1l0,0h0a25.45,25.45,0,0,1,13.7,11.3v0c.37.61.73,1.24,1.06,1.9a33.94,33.94,0,0,1,3.72,15.38Z"/><path class="cls-2" d="M1369.22,749.43c-9.25-17.38-35.74-105.72-35.55-151.59l-7.86,1.32L1193.6,621.33s3,35.26,3.09,68.46c0,.28,0,.55,0,.83.16,28.84-.38,43,5.4,78.78,2.61,16.12-2.9,131.85,52.46,123.54C1274.3,890,1375.32,760.89,1369.22,749.43Z"/><path class="cls-8" d="M1193.6,621.33s3,35.26,3.09,68.46c74-1.76,113.1-58.94,129.12-90.63Z"/><path class="cls-2" d="M1168.89,662.69s175,2.89,175.17-106.15,22.79-182.1-89-188.56-133.52,35.13-142.41,71.52S1123.36,659.13,1168.89,662.69Z"/><path class="cls-3" d="M1175.37,365.31s47.93,127.93,121.48,146.84,105.46-.79,105.46-.79-56.42-44.82-68.13-123.06C1334.18,388.3,1211.52,304.43,1175.37,365.31Z"/><path class="cls-3" d="M1187.25,375.7s-35.54,13.29-50.17,39.2c-14.3,25.35-26.49,58.92-23.66,100.11,0,0-36.11-86.95,4.47-136.14C1160.92,326.72,1187.25,375.7,1187.25,375.7Z"/><path class="cls-5" d="M1239.38,895.16S1353.41,770,1358,719.51c0,0,23.7.45,67.16,23a7.13,7.13,0,0,1,3.33,9c-8.51,20.14-37.77,85.6-65.81,104.78,0,0-24.12-3.52-43.08-11.44,0,0,12,20.08,21.46,32.08C1341.06,877,1288.53,906.39,1239.38,895.16Z"/><path class="cls-5" d="M1196.92,717.42s2.63,80.55,42.46,177.74c0,0-54-10.62-81.54-48.86,0,0,8.71-20.4,16.06-25.1,0,0-16.2-6.54-26.43,2.88,0,0-10.83-71-2.55-83.45C1148.35,735.46,1188.5,715.18,1196.92,717.42Z"/><path class="cls-7" d="M1248,895.2a8.61,8.61,0,1,0-8.65,8.56A8.6,8.6,0,0,0,1248,895.2Z"/><path class="cls-7" d="M1201.43,1017a8.61,8.61,0,1,0-8.65,8.57A8.6,8.6,0,0,0,1201.43,1017Z"/><path class="cls-7" d="M1192.08,1160.08a8.61,8.61,0,1,0-8.66,8.57A8.62,8.62,0,0,0,1192.08,1160.08Z"/><rect class="cls-9" x="1831.7" y="1068.84" width="54.93" height="65.95" rx="13.53"/><rect class="cls-10" x="1831.7" y="1068.84" width="54.93" height="48.73" rx="13.53"/><path class="cls-9" d="M2195.33,1101.81a143.28,143.28,0,0,1-11.42,56.18c-22,51.89-73.59,88.51-133.27,88.51h-41.37c-52.81,0-99.25-28.67-124.51-71.21a143.88,143.88,0,0,1-8.76-129.66c22-51.88,73.59-88.51,133.27-88.51h41.37c54.27,0,101.82,30.29,126.56,74.8A143.3,143.3,0,0,1,2195.33,1101.81Z"/><path class="cls-9" d="M2075.12,1185.08l-13.49,87.63a10.7,10.7,0,0,0,10.34,13.44h35.47a20.3,20.3,0,0,0,18-11l55.13-110Z"/><path class="cls-9" d="M1994.36,1186.58l10.83,86.13a10.71,10.71,0,0,1-10.35,13.44h-35.47a20.31,20.31,0,0,1-18-11l-56.56-99.85Z"/><path class="cls-9" d="M2229.8,1141.14a9.31,9.31,0,0,1-2.45-.32c-6.28-1.65-9.88-9.16-9.39-19.59.49-10.23,4.77-21,11.75-29.63a53.39,53.39,0,0,1,10.63-10,30.55,30.55,0,0,0-7.82-8.62c-5.8-4.35-11.79-5.6-18.31-3.83-17.53,4.76-32.39,29.83-33.6,32.64a3,3,0,0,1-5.6-1.95c.52-1.56,4.87-9,10.92-16.45,10.56-12.92,19.76-17.81,25.62-19.64,8.69-2.71,16.94-1.2,24.53,4.49a36.4,36.4,0,0,1,9.29,10.2,61.8,61.8,0,0,1,20.17-6.89,3,3,0,0,1,1,5.85,55.63,55.63,0,0,0-18.44,6.34,44.87,44.87,0,0,1,3.17,13.35,58.74,58.74,0,0,1-5.47,29.74C2241.34,1136,2235.52,1141.14,2229.8,1141.14Zm13.17-54.07a47.42,47.42,0,0,0-8.66,8.27c-6.2,7.64-10,17.17-10.42,26.17-.34,7.13,1.7,12.72,5,13.58s8.06-3.58,11.56-10.81a53.27,53.27,0,0,0,4.9-26.64A39.74,39.74,0,0,0,2243,1087.07Zm-62.33,14.69,0,0S2180.63,1101.77,2180.64,1101.76Z"/><path class="cls-10" d="M2177.2,1031.92c3.44,16.68.74,40.54-3.65,53.17-29.21,84-97.84,99.14-168,105.53-49.89,4.54-120.79-15.33-120.79-15.33a143.88,143.88,0,0,1-8.76-129.66c22-51.88,73.59-88.51,133.27-88.51h41.37C2104.91,957.12,2152.46,987.41,2177.2,1031.92Z"/><path class="cls-10" d="M1992.21,993.37H1935.3c-5.74,0-10.39-3.49-10.39-7.78V907.88a6.27,6.27,0,0,1,1.14-3.58c2.78-4,10.09-5.7,15.54-2.62,21.61,12.25,57,38.87,61,83.38C2003,989.55,1998.22,993.37,1992.21,993.37Z"/><path class="cls-9" d="M1937.62,993.37h-2.32c-5.74,0-10.39-3.49-10.39-7.78V907.88a6.27,6.27,0,0,1,1.14-3.58,7.58,7.58,0,0,1,.7.69c12.36,13.76,30.18,40.8,25.16,78.67C1951.18,989.17,1945,993.37,1937.62,993.37Z"/><path class="cls-6" d="M1907.62,1045.31a8.48,8.48,0,1,1,8.48,8.48A8.48,8.48,0,0,1,1907.62,1045.31Z"/><path class="cls-11" d="M1725.5,1451.32s19.38,27.27,37.14,27.65,44.78-12.64,44.78-12.64,16.31-36.35,5.25-50.57c0,0-11.1-4.86-22.69,3.73a34.72,34.72,0,0,0-6,5.75,19,19,0,0,1-9.32,6.32c-12.68,3.86-27.72-5.21-33.35,3.54a59,59,0,0,1-9.79,11.6A44.94,44.94,0,0,1,1725.5,1451.32Z"/><path class="cls-11" d="M1978.08,1648.06S1909.6,1482.13,1786.34,1479c0,0-113.78,12.64-120.1,169.09Z"/><path class="cls-4" d="M1820.11,1484s-49.41,11-64.65,4.53c0,0-2.3-20.66,18.5-17.76,14.24,2,23.52-4.86,29-7.64C1810.65,1459.24,1822.16,1475.4,1820.11,1484Z"/><path class="cls-11" d="M1777.11,1452.9c3.16,2.37,12.87-33.41,12.87-33.41a34.72,34.72,0,0,0-6,5.75,19,19,0,0,1-9.32,6.32C1774.62,1432.61,1774.05,1450.59,1777.11,1452.9Z"/><path class="cls-11" d="M1731.51,1446.7c.69.41,23.54,14.1,26.64,14.1s-16.85-25.7-16.85-25.7A59,59,0,0,1,1731.51,1446.7Z"/><path class="cls-11" d="M1911.18,1601.71c1.27-1.09-48.46-73.22-62.16-73.75s-44.46,15.8-66.74,17.91-43.87-4.21-48.09,9-15.8,59.86-8.69,67.33S1883.84,1625.06,1911.18,1601.71Z"/><path class="cls-12" d="M808.83,1189.9s-16,22.52-30.65,22.83-37-10.44-37-10.44-13.46-30-4.33-41.74c0,0,9.16-4,18.73,3.08a28.63,28.63,0,0,1,5,4.75,15.68,15.68,0,0,0,7.69,5.21c10.47,3.19,22.88-4.3,27.53,2.93a48.88,48.88,0,0,0,8.09,9.57A36.93,36.93,0,0,0,808.83,1189.9Z"/><path class="cls-12" d="M600.33,1352.31s56.53-137,158.28-139.58c0,0,93.92,10.43,99.14,139.58Z"/><path class="cls-13" d="M730.74,1216.91s40.78,9.07,53.36,3.74c0,0,1.91-17.05-15.27-14.66-11.76,1.64-19.41-4-23.92-6.31C738.54,1196.44,729,1209.78,730.74,1216.91Z"/><path class="cls-14" d="M766.23,1191.2c-2.61,2-10.62-27.57-10.62-27.57a28.63,28.63,0,0,1,5,4.75,15.68,15.68,0,0,0,7.69,5.21C768.29,1174.45,768.76,1189.3,766.23,1191.2Z"/><path class="cls-14" d="M803.88,1186.09c-.58.34-19.44,11.64-22,11.64s13.91-21.21,13.91-21.21A48.88,48.88,0,0,0,803.88,1186.09Z"/><path class="cls-15" d="M655.56,1314c-1-.89,40-60.44,51.31-60.87s36.7,13,55.09,14.78,36.22-3.48,39.7,7.39,13,49.41,7.17,55.58S678.13,1333.33,655.56,1314Z"/><path class="cls-16" d="M885.31,1625.76V1641a5.2,5.2,0,0,1-1.2,3.29,6.93,6.93,0,0,1-3.28,2.19,6.29,6.29,0,0,1-1.28.31,8.52,8.52,0,0,1-1.24.09H588.83c-3.5,0-6.42-2.18-6.93-5a3.68,3.68,0,0,1-.06-.58c0-.1,0-.2,0-.3v-15.26c0-.1,0-.2,0-.3a3.68,3.68,0,0,1,.06-.58c.51-2.82,3.43-5,6.93-5H878.31a8.52,8.52,0,0,1,1.24.09,8,8,0,0,1,1.28.31,6.88,6.88,0,0,1,3.28,2.2A5.19,5.19,0,0,1,885.31,1625.76Z"/><path class="cls-17" d="M743.17,1646.9H588.08a6.21,6.21,0,0,1-6-4.35,4.77,4.77,0,0,1-.17-.65,3.68,3.68,0,0,1-.06-.58c0-.1,0-.2,0-.3v-15.26c0-.1,0-.2,0-.3a3.68,3.68,0,0,1,.06-.58,5.19,5.19,0,0,1,.17-.65,6.21,6.21,0,0,1,6-4.35h136A47.34,47.34,0,0,0,743.17,1646.9Z"/><rect class="cls-17" x="846.8" y="1619.88" width="3.29" height="27.02"/><rect class="cls-17" x="835.66" y="1619.88" width="3.29" height="27.02"/><rect class="cls-17" x="822.31" y="1619.88" width="3.29" height="27.02"/><rect class="cls-17" x="801.84" y="1619.88" width="3.29" height="27.02"/><rect class="cls-17" x="780.19" y="1619.88" width="3.29" height="27.02"/><rect class="cls-17" x="747.01" y="1619.88" width="3.29" height="27.02"/><rect class="cls-17" x="715.93" y="1619.88" width="3.29" height="27.02"/><rect class="cls-17" x="688.19" y="1619.88" width="3.29" height="27.02"/><rect class="cls-17" x="857.4" y="1619.88" width="3.29" height="27.02"/><rect class="cls-17" x="864.4" y="1619.88" width="3.29" height="27.02"/><rect class="cls-17" x="871.17" y="1619.88" width="3.29" height="27.02"/><path class="cls-17" d="M879.54,1620v26.84a8.28,8.28,0,0,1-1.23.09h-2.06v-27h2.06A8.28,8.28,0,0,1,879.54,1620Z"/><path class="cls-17" d="M884.11,1622.48v21.83a7,7,0,0,1-3.28,2.2v-26.23A6.88,6.88,0,0,1,884.11,1622.48Z"/><path class="cls-16" d="M854.36,1598.74V1614a5.27,5.27,0,0,1-1.19,3.3,7.17,7.17,0,0,1-.66.69,7.26,7.26,0,0,1-2.63,1.5,6.92,6.92,0,0,1-1.29.3,8.28,8.28,0,0,1-1.23.1H557.88c-3.49,0-6.41-2.19-6.93-5,0-.19-.05-.38-.06-.57s0-.2,0-.31v-15.25c0-.1,0-.21,0-.31s0-.38.06-.57c.52-2.82,3.44-5,6.93-5H847.36a5.07,5.07,0,0,1,.55,0l.2,0h0l.26,0,.18,0a6.92,6.92,0,0,1,1.29.3c.24.08.47.17.7.27h0l.45.22.26.14a1.82,1.82,0,0,1,.23.15,5.29,5.29,0,0,1,.85.62c.09.07.16.16.24.23s.1.09.15.13l.07.08.06.07a1.93,1.93,0,0,1,.27.3A5.22,5.22,0,0,1,854.36,1598.74Z"/><path class="cls-17" d="M712.22,1619.88H557.13a6.2,6.2,0,0,1-6-4.36,4.77,4.77,0,0,1-.17-.65c0-.19-.05-.38-.06-.57s0-.2,0-.31v-15.25c0-.1,0-.21,0-.31s0-.38.06-.57a4.64,4.64,0,0,1,.17-.64,6.21,6.21,0,0,1,6-4.37h136c.06.23.12.44.19.67A47.24,47.24,0,0,0,712.22,1619.88Z"/><rect class="cls-17" x="815.85" y="1592.86" width="3.29" height="27.02"/><rect class="cls-17" x="804.71" y="1592.86" width="3.29" height="27.02"/><rect class="cls-17" x="791.36" y="1592.86" width="3.29" height="27.02"/><rect class="cls-17" x="770.89" y="1592.86" width="3.29" height="27.02"/><rect class="cls-17" x="749.24" y="1592.86" width="3.29" height="27.02"/><rect class="cls-17" x="716.05" y="1592.86" width="3.29" height="27.02"/><rect class="cls-17" x="684.98" y="1592.86" width="3.29" height="27.02"/><rect class="cls-17" x="657.24" y="1592.86" width="3.29" height="27.02"/><rect class="cls-17" x="826.45" y="1592.86" width="3.29" height="27.02"/><rect class="cls-17" x="833.45" y="1592.86" width="3.29" height="27.02"/><rect class="cls-17" x="840.22" y="1592.86" width="3.29" height="27.02"/><path class="cls-17" d="M848.59,1593v26.83a7.12,7.12,0,0,1-1.23.1H845.3v-27h2.06A8.28,8.28,0,0,1,848.59,1593Z"/><path class="cls-17" d="M853.16,1595.45v21.83a6.93,6.93,0,0,1-3.28,2.2v-26.23A7,7,0,0,1,853.16,1595.45Z"/><path class="cls-16" d="M869.32,1572.38v15.26a5.21,5.21,0,0,1-1.21,3.29,6.89,6.89,0,0,1-3.28,2.19,7.48,7.48,0,0,1-1.28.31,8.38,8.38,0,0,1-1.23.09H572.84a8,8,0,0,1-3.23-.67,6.09,6.09,0,0,1-3.69-4.27,2.32,2.32,0,0,1,0-.38,2.11,2.11,0,0,1,0-.26c0-.1,0-.2,0-.3v-15.26c0-.1,0-.2,0-.3a5.23,5.23,0,0,1,.06-.57c.52-2.83,3.44-5,6.93-5H862.32a8.38,8.38,0,0,1,1.23.09,7.47,7.47,0,0,1,1.28.3,6.92,6.92,0,0,1,3.28,2.21A5.2,5.2,0,0,1,869.32,1572.38Z"/><path class="cls-17" d="M727.17,1593.52H572.09a6.42,6.42,0,0,1-2.88-.67,5.92,5.92,0,0,1-3.29-4.27,2.32,2.32,0,0,1,0-.38,2.11,2.11,0,0,1,0-.26c0-.1,0-.2,0-.3v-15.26c0-.1,0-.2,0-.3a5.23,5.23,0,0,1,.06-.57c0-.21.1-.42.16-.63a6.2,6.2,0,0,1,6-4.38h136a47.4,47.4,0,0,0,18.09,26.35C726.53,1593.08,726.85,1593.3,727.17,1593.52Z"/><rect class="cls-17" x="830.81" y="1566.5" width="3.29" height="27.02"/><rect class="cls-17" x="819.67" y="1566.5" width="3.29" height="27.02"/><rect class="cls-17" x="806.31" y="1566.5" width="3.29" height="27.02"/><rect class="cls-17" x="785.84" y="1566.5" width="3.29" height="27.02"/><rect class="cls-17" x="764.2" y="1566.5" width="3.29" height="27.02"/><rect class="cls-17" x="731.01" y="1566.5" width="3.29" height="27.02"/><rect class="cls-17" x="699.94" y="1566.5" width="3.29" height="27.02"/><rect class="cls-17" x="672.19" y="1566.5" width="3.29" height="27.02"/><rect class="cls-17" x="841.41" y="1566.5" width="3.29" height="27.02"/><rect class="cls-17" x="848.41" y="1566.5" width="3.29" height="27.02"/><rect class="cls-17" x="855.17" y="1566.5" width="3.29" height="27.02"/><path class="cls-17" d="M863.55,1566.59v26.84a8.28,8.28,0,0,1-1.23.09h-2.06v-27h2.06A8.28,8.28,0,0,1,863.55,1566.59Z"/><path class="cls-17" d="M868.12,1569.09v21.83a7,7,0,0,1-3.29,2.21v-26.24A7.05,7.05,0,0,1,868.12,1569.09Z"/><path class="cls-16" d="M876.25,1545.36v15.25a5.2,5.2,0,0,1-1.2,3.29l-.32.36a7.12,7.12,0,0,1-3,1.84,6.92,6.92,0,0,1-1.29.3,5.48,5.48,0,0,1-.6.07l-.63,0H579.77c-3.5,0-6.42-2.19-6.93-5a5.54,5.54,0,0,1-.07-.57v-15.87c.19-2.87,2.83-5.2,6.17-5.53a7.55,7.55,0,0,1,.83,0H869.25l.63,0,.6.07a7.35,7.35,0,0,1,4.57,2.5A5.2,5.2,0,0,1,876.25,1545.36Z"/><path class="cls-17" d="M734.11,1566.5H579a6.2,6.2,0,0,1-6-4.36,4.77,4.77,0,0,1-.17-.65,5.54,5.54,0,0,1-.07-.57v-15.87a6.36,6.36,0,0,1,6.25-5.58h136s0,0,0,0A47.41,47.41,0,0,0,734.11,1566.5Z"/><rect class="cls-17" x="837.74" y="1539.47" width="3.29" height="27.02"/><rect class="cls-17" x="826.6" y="1539.47" width="3.29" height="27.02"/><rect class="cls-17" x="813.25" y="1539.47" width="3.29" height="27.02"/><rect class="cls-17" x="792.78" y="1539.47" width="3.29" height="27.02"/><rect class="cls-17" x="771.13" y="1539.47" width="3.29" height="27.02"/><rect class="cls-17" x="737.94" y="1539.47" width="3.29" height="27.02"/><rect class="cls-17" x="706.87" y="1539.47" width="3.29" height="27.02"/><rect class="cls-17" x="679.13" y="1539.47" width="3.29" height="27.02"/><rect class="cls-17" x="848.34" y="1539.47" width="3.29" height="27.02"/><rect class="cls-17" x="855.34" y="1539.47" width="3.29" height="27.02"/><rect class="cls-17" x="862.11" y="1539.47" width="3.29" height="27.02"/><path class="cls-17" d="M870.48,1539.57v26.83a8.28,8.28,0,0,1-1.23.1h-2.06v-27h2.06A7.12,7.12,0,0,1,870.48,1539.57Z"/><path class="cls-17" d="M875.05,1542.07v21.83a7,7,0,0,1-3.28,2.2v-26.23A6.88,6.88,0,0,1,875.05,1542.07Z"/><path class="cls-16" d="M855,1518.38v15.25a5.17,5.17,0,0,1-1.2,3.28,6.81,6.81,0,0,1-3.29,2.21,9,9,0,0,1-1.27.3,2.87,2.87,0,0,1-.41,0h0l-.22,0-.19,0H558.5c-3.74,0-6.81-2.49-7-5.58,0-.1,0-.2,0-.31v-15.25c0-.1,0-.21,0-.31s0-.16,0-.25a6.35,6.35,0,0,1,5.26-5.14l.21,0a8.26,8.26,0,0,1,1.52-.14H848c.21,0,.41,0,.62,0l.26,0h0l.33,0a7.43,7.43,0,0,1,4.56,2.5A5.18,5.18,0,0,1,855,1518.38Z"/><path class="cls-17" d="M712.82,1539.52H557.75a6.12,6.12,0,0,1-6.25-5.58c0-.1,0-.2,0-.31v-15.25c0-.1,0-.21,0-.31s0-.16,0-.25a6,6,0,0,1,4.86-5.18l.26-.05a5.91,5.91,0,0,1,1.12-.1h136c0,.07,0,.13.05.2a47.35,47.35,0,0,0,18.93,26.78Z"/><rect class="cls-17" x="816.46" y="1512.49" width="3.29" height="27.02"/><rect class="cls-17" x="805.32" y="1512.49" width="3.29" height="27.02"/><rect class="cls-17" x="791.97" y="1512.49" width="3.29" height="27.02"/><rect class="cls-17" x="771.49" y="1512.49" width="3.29" height="27.02"/><rect class="cls-17" x="749.85" y="1512.49" width="3.29" height="27.02"/><rect class="cls-17" x="716.66" y="1512.49" width="3.29" height="27.02"/><rect class="cls-17" x="685.59" y="1512.49" width="3.29" height="27.02"/><rect class="cls-17" x="657.85" y="1512.49" width="3.29" height="27.02"/><rect class="cls-17" x="827.06" y="1512.49" width="3.29" height="27.02"/><rect class="cls-17" x="834.06" y="1512.49" width="3.29" height="27.02"/><rect class="cls-17" x="840.82" y="1512.49" width="3.29" height="27.02"/><path class="cls-17" d="M849.2,1512.58v26.84a8.28,8.28,0,0,1-1.23.09h-2.06v-27H848A8.28,8.28,0,0,1,849.2,1512.58Z"/><path class="cls-17" d="M853.77,1515.09v21.83a7,7,0,0,1-3.29,2.2v-26.23A6.91,6.91,0,0,1,853.77,1515.09Z"/><path class="cls-16" d="M854.36,1491.54v15.26a5.22,5.22,0,0,1-1.19,3.28,8.81,8.81,0,0,1-.66.71,7.41,7.41,0,0,1-2.63,1.5,7,7,0,0,1-1,.25h0l-.26,0a8.28,8.28,0,0,1-1.23.1H557.88a6.69,6.69,0,0,1-.9-.06l-.35,0c-2.94-.45-5.27-2.47-5.69-5,0-.17,0-.33-.05-.5s0-.21,0-.31v-15.26c0-.1,0-.2,0-.3s0-.38.06-.57c.52-2.82,3.44-5,6.93-5H847.36l.55,0h.24l.26,0,.18,0a6.92,6.92,0,0,1,1.29.3c.24.08.47.17.7.27h0a6.9,6.9,0,0,1,2.31,1.63,2.44,2.44,0,0,1,.27.29A5.25,5.25,0,0,1,854.36,1491.54Z"/><path class="cls-17" d="M712.22,1512.69H556.77l-.4,0a6.11,6.11,0,0,1-5.43-5c0-.17,0-.33-.05-.5s0-.21,0-.31v-15.26c0-.1,0-.2,0-.3s0-.38.06-.57a4.77,4.77,0,0,1,.17-.65,6.2,6.2,0,0,1,6-4.36h136c.06.22.12.44.19.67a47.26,47.26,0,0,0,18.58,26.16Z"/><rect class="cls-17" x="815.85" y="1485.66" width="3.29" height="27.02"/><rect class="cls-17" x="804.71" y="1485.66" width="3.29" height="27.02"/><rect class="cls-17" x="791.36" y="1485.66" width="3.29" height="27.02"/><rect class="cls-17" x="770.89" y="1485.66" width="3.29" height="27.02"/><rect class="cls-17" x="749.24" y="1485.66" width="3.29" height="27.02"/><rect class="cls-17" x="716.05" y="1485.66" width="3.29" height="27.02"/><rect class="cls-17" x="684.98" y="1485.66" width="3.29" height="27.02"/><rect class="cls-17" x="657.24" y="1485.66" width="3.29" height="27.02"/><rect class="cls-17" x="826.45" y="1485.66" width="3.29" height="27.02"/><rect class="cls-17" x="833.45" y="1485.66" width="3.29" height="27.02"/><rect class="cls-17" x="840.22" y="1485.66" width="3.29" height="27.02"/><path class="cls-17" d="M848.59,1485.75v26.84a8.28,8.28,0,0,1-1.23.09H845.3v-27h2.06A8.28,8.28,0,0,1,848.59,1485.75Z"/><path class="cls-17" d="M853.16,1488.26v21.83a7.07,7.07,0,0,1-3.28,2.2v-26.23A6.93,6.93,0,0,1,853.16,1488.26Z"/><path class="cls-16" d="M869.32,1465.18v15.26a5.21,5.21,0,0,1-1.21,3.29,6.83,6.83,0,0,1-3.28,2.2,7.47,7.47,0,0,1-1.28.3,8.39,8.39,0,0,1-1.23.1H572.84a8.14,8.14,0,0,1-3.23-.67,6.11,6.11,0,0,1-3.69-4.27,2.47,2.47,0,0,1,0-.38,2.28,2.28,0,0,1,0-.26c0-.1,0-.2,0-.31v-15.26c0-.1,0-.2,0-.3a5.51,5.51,0,0,1,.06-.57c.52-2.82,3.44-5,6.93-5H862.32a7.21,7.21,0,0,1,1.23.1,6.64,6.64,0,0,1,1.28.3,6.83,6.83,0,0,1,3.28,2.2A5.18,5.18,0,0,1,869.32,1465.18Z"/><path class="cls-17" d="M727.17,1486.33H572.09a6.56,6.56,0,0,1-2.88-.67,5.94,5.94,0,0,1-3.29-4.27,2.47,2.47,0,0,1,0-.38,2.28,2.28,0,0,1,0-.26c0-.1,0-.2,0-.31v-15.26c0-.1,0-.2,0-.3a5.51,5.51,0,0,1,.06-.57,6.45,6.45,0,0,1,.16-.63,6.2,6.2,0,0,1,6-4.38h136a47.42,47.42,0,0,0,18.09,26.36Z"/><rect class="cls-17" x="830.81" y="1459.3" width="3.29" height="27.02"/><rect class="cls-17" x="819.67" y="1459.3" width="3.29" height="27.02"/><rect class="cls-17" x="806.31" y="1459.3" width="3.29" height="27.02"/><rect class="cls-17" x="785.84" y="1459.3" width="3.29" height="27.02"/><rect class="cls-17" x="764.2" y="1459.3" width="3.29" height="27.02"/><rect class="cls-17" x="731.01" y="1459.3" width="3.29" height="27.02"/><rect class="cls-17" x="699.94" y="1459.3" width="3.29" height="27.02"/><rect class="cls-17" x="672.19" y="1459.3" width="3.29" height="27.02"/><rect class="cls-17" x="841.41" y="1459.3" width="3.29" height="27.02"/><rect class="cls-17" x="848.41" y="1459.3" width="3.29" height="27.02"/><rect class="cls-17" x="855.17" y="1459.3" width="3.29" height="27.02"/><path class="cls-17" d="M863.55,1459.4v26.83a8.28,8.28,0,0,1-1.23.1h-2.06v-27h2.06A7.12,7.12,0,0,1,863.55,1459.4Z"/><path class="cls-17" d="M868.12,1461.9v21.83a7,7,0,0,1-3.29,2.2V1459.7A6.91,6.91,0,0,1,868.12,1461.9Z"/><path class="cls-16" d="M893,1438.16v15.26a5.21,5.21,0,0,1-1.19,3.27h0a3.73,3.73,0,0,1-.32.36,6.63,6.63,0,0,1-1.54,1.22,8.67,8.67,0,0,1-.92.44h0l-.49.18a8.67,8.67,0,0,1-1.29.3,8.18,8.18,0,0,1-1.23.09H596.49c-3.49,0-6.41-2.18-6.92-5a3.68,3.68,0,0,1-.07-.58v-15.86c.18-2.86,2.82-5.2,6.17-5.54a7.38,7.38,0,0,1,.82,0H886a8.18,8.18,0,0,1,1.23.09,7.59,7.59,0,0,1,1.29.31,7.11,7.11,0,0,1,3,1.83l.32.36h0A5.22,5.22,0,0,1,893,1438.16Z"/><path class="cls-17" d="M750.83,1459.3H595.74a6.19,6.19,0,0,1-6-4.38,4.34,4.34,0,0,1-.16-.62,3.68,3.68,0,0,1-.07-.58v-15.86a6.24,6.24,0,0,1,6.24-5.58h136s0,0,0,0A47.38,47.38,0,0,0,750.83,1459.3Z"/><rect class="cls-17" x="854.46" y="1432.28" width="3.29" height="27.02"/><rect class="cls-17" x="843.33" y="1432.28" width="3.29" height="27.02"/><rect class="cls-17" x="829.97" y="1432.28" width="3.29" height="27.02"/><rect class="cls-17" x="809.5" y="1432.28" width="3.29" height="27.02"/><rect class="cls-17" x="787.85" y="1432.28" width="3.29" height="27.02"/><rect class="cls-17" x="754.67" y="1432.28" width="3.29" height="27.02"/><rect class="cls-17" x="723.6" y="1432.28" width="3.29" height="27.02"/><rect class="cls-17" x="695.85" y="1432.28" width="3.29" height="27.02"/><rect class="cls-17" x="865.06" y="1432.28" width="3.29" height="27.02"/><rect class="cls-17" x="872.07" y="1432.28" width="3.29" height="27.02"/><rect class="cls-17" x="878.83" y="1432.28" width="3.29" height="27.02"/><path class="cls-17" d="M887.21,1432.37v26.84a8.52,8.52,0,0,1-1.24.09h-2.05v-27H886A8.52,8.52,0,0,1,887.21,1432.37Z"/><path class="cls-17" d="M891.78,1434.88v21.82a7,7,0,0,1-3.29,2.2v-26.23A7,7,0,0,1,891.78,1434.88Z"/><path class="cls-16" d="M855,1411.18v15.26a5.17,5.17,0,0,1-1.2,3.28,7.43,7.43,0,0,1-4.56,2.5l-.41.06h0a1.37,1.37,0,0,1-.28,0h-290a7.36,7.36,0,0,1-6-2.8,5.1,5.1,0,0,1-1-2.78c0-.1,0-.2,0-.3v-15.26c0-.11,0-.21,0-.31a6.19,6.19,0,0,1,5-5.31,7.56,7.56,0,0,1,2-.27H848.34l.18,0c.23,0,.46,0,.69.07a9,9,0,0,1,1.27.3,3.92,3.92,0,0,1,.6.23h0a6.73,6.73,0,0,1,2,1.27l0,0,.08.07a5.12,5.12,0,0,1,.55.59A5.2,5.2,0,0,1,855,1411.18Z"/><path class="cls-17" d="M712.82,1432.32H557.75a6.36,6.36,0,0,1-5.23-2.66,5.5,5.5,0,0,1-1-2.92c0-.1,0-.2,0-.3v-15.26c0-.11,0-.21,0-.31a6,6,0,0,1,5-5.45,6.59,6.59,0,0,1,1.27-.13h136c.05.21.12.42.18.63a47.27,47.27,0,0,0,18.8,26.36Z"/><rect class="cls-17" x="816.46" y="1405.3" width="3.29" height="27.02"/><rect class="cls-17" x="805.32" y="1405.3" width="3.29" height="27.02"/><rect class="cls-17" x="791.97" y="1405.3" width="3.29" height="27.02"/><rect class="cls-17" x="771.49" y="1405.3" width="3.29" height="27.02"/><rect class="cls-17" x="749.85" y="1405.3" width="3.29" height="27.02"/><rect class="cls-17" x="716.66" y="1405.3" width="3.29" height="27.02"/><rect class="cls-17" x="685.59" y="1405.3" width="3.29" height="27.02"/><rect class="cls-17" x="657.85" y="1405.3" width="3.29" height="27.02"/><rect class="cls-17" x="827.06" y="1405.3" width="3.29" height="27.02"/><rect class="cls-17" x="834.06" y="1405.3" width="3.29" height="27.02"/><rect class="cls-17" x="840.82" y="1405.3" width="3.29" height="27.02"/><path class="cls-17" d="M849.2,1405.39v26.84a8.28,8.28,0,0,1-1.23.09h-2.06v-27H848A8.28,8.28,0,0,1,849.2,1405.39Z"/><path class="cls-17" d="M853.77,1407.89v21.83a6.91,6.91,0,0,1-3.29,2.2v-26.23A7,7,0,0,1,853.77,1407.89Z"/><path class="cls-16" d="M876.25,1384.78V1400a5.19,5.19,0,0,1-1.2,3.28,6.88,6.88,0,0,1-3.28,2.2,7.59,7.59,0,0,1-1.29.31,8.28,8.28,0,0,1-1.23.09H579.77a7.8,7.8,0,0,1-3.12-.63,6,6,0,0,1-3.85-4.71,1.94,1.94,0,0,1,0-.24c0-.1,0-.2,0-.3v-15.26c0-.1,0-.2,0-.31.17-2.86,2.82-5.2,6.17-5.53a7.38,7.38,0,0,1,.82,0H869.25a8.28,8.28,0,0,1,1.23.09,7.58,7.58,0,0,1,1.29.3,7,7,0,0,1,3.28,2.2A5.2,5.2,0,0,1,876.25,1384.78Z"/><path class="cls-17" d="M734.11,1405.92H579a6.35,6.35,0,0,1-2.79-.63,5.9,5.9,0,0,1-3.43-4.71,1.94,1.94,0,0,1,0-.24c0-.1,0-.2,0-.3v-15.26c0-.1,0-.2,0-.31a6.24,6.24,0,0,1,6.24-5.57h136v0a47.34,47.34,0,0,0,18.15,26.35C733.51,1405.51,733.8,1405.71,734.11,1405.92Z"/><rect class="cls-17" x="837.74" y="1378.9" width="3.29" height="27.02"/><rect class="cls-17" x="826.6" y="1378.9" width="3.29" height="27.02"/><rect class="cls-17" x="813.25" y="1378.9" width="3.29" height="27.02"/><rect class="cls-17" x="792.78" y="1378.9" width="3.29" height="27.02"/><rect class="cls-17" x="771.13" y="1378.9" width="3.29" height="27.02"/><rect class="cls-17" x="737.94" y="1378.9" width="3.29" height="27.02"/><rect class="cls-17" x="706.87" y="1378.9" width="3.29" height="27.02"/><rect class="cls-17" x="679.13" y="1378.9" width="3.29" height="27.02"/><rect class="cls-17" x="848.34" y="1378.9" width="3.29" height="27.02"/><rect class="cls-17" x="855.34" y="1378.9" width="3.29" height="27.02"/><rect class="cls-17" x="862.11" y="1378.9" width="3.29" height="27.02"/><path class="cls-17" d="M870.48,1379v26.83a7.12,7.12,0,0,1-1.23.1h-2.06v-27h2.06A8.28,8.28,0,0,1,870.48,1379Z"/><path class="cls-17" d="M875.05,1381.49v21.83a6.88,6.88,0,0,1-3.28,2.2v-26.23A7,7,0,0,1,875.05,1381.49Z"/><path class="cls-16" d="M885.31,1357.79v15.27a5.19,5.19,0,0,1-1.2,3.28,6.88,6.88,0,0,1-3.28,2.2,6.74,6.74,0,0,1-1.29.3l-.4.06-.23,0H588.83c-3.73,0-6.8-2.49-7-5.58,0-.1,0-.2,0-.3v-15.27c0-.1,0-.2,0-.3.19-3.09,3.26-5.58,7-5.58H878.31a8.28,8.28,0,0,1,1.23.1,6.74,6.74,0,0,1,1.29.3,7,7,0,0,1,3.28,2.2A5.19,5.19,0,0,1,885.31,1357.79Z"/><path class="cls-17" d="M743.17,1378.94H588.08a6.12,6.12,0,0,1-6.24-5.58c0-.1,0-.2,0-.3v-15.27c0-.1,0-.2,0-.3a6.12,6.12,0,0,1,6.24-5.58h136a47.42,47.42,0,0,0,19,27Z"/><rect class="cls-17" x="846.8" y="1351.91" width="3.29" height="27.02"/><rect class="cls-17" x="835.66" y="1351.91" width="3.29" height="27.02"/><rect class="cls-17" x="822.31" y="1351.91" width="3.29" height="27.02"/><rect class="cls-17" x="801.84" y="1351.91" width="3.29" height="27.02"/><rect class="cls-17" x="780.19" y="1351.91" width="3.29" height="27.02"/><rect class="cls-17" x="747.01" y="1351.91" width="3.29" height="27.02"/><rect class="cls-17" x="715.93" y="1351.91" width="3.29" height="27.02"/><rect class="cls-17" x="688.19" y="1351.91" width="3.29" height="27.02"/><rect class="cls-17" x="857.4" y="1351.91" width="3.29" height="27.02"/><rect class="cls-17" x="864.4" y="1351.91" width="3.29" height="27.02"/><rect class="cls-17" x="871.17" y="1351.91" width="3.29" height="27.02"/><path class="cls-17" d="M879.54,1352v26.83a8.28,8.28,0,0,1-1.23.1h-2.06v-27h2.06A8.28,8.28,0,0,1,879.54,1352Z"/><path class="cls-17" d="M884.11,1354.51v21.83a7,7,0,0,1-3.28,2.2v-26.23A7,7,0,0,1,884.11,1354.51Z"/><path class="cls-18" d="M684.59,1512.49c0,.07,0,.13,0,.2a129.57,129.57,0,0,1-4.34,26.78.43.43,0,0,0,0,0c-.34,1.26-.7,2.53-1.09,3.79a133.71,133.71,0,0,1-27.73,49.54c-.19.23-.39.45-.59.67a139.35,139.35,0,0,1-31.8,26.36q-3.85,2.36-7.9,4.48c-1.83,1-3.67,1.86-5.51,2.74s-3.63,1.9-5.38,3a75.23,75.23,0,0,1-18.39,7.57v-11.88c0-.1,0-.2,0-.3a3.68,3.68,0,0,1,.06-.58,5.19,5.19,0,0,1,.17-.65,6.21,6.21,0,0,1,6-4.35h-31a6.2,6.2,0,0,1-6-4.36,4.77,4.77,0,0,1-.17-.65c0-.19-.05-.38-.06-.57s0-.2,0-.31v-15.25c0-.1,0-.21,0-.31s0-.38.06-.57a4.64,4.64,0,0,1,.17-.64,6.21,6.21,0,0,1,6-4.37h12.08a5.92,5.92,0,0,1-3.29-4.27,2.32,2.32,0,0,1,0-.38,2.11,2.11,0,0,1,0-.26c0-.1,0-.2,0-.3v-15.26c0-.1,0-.2,0-.3a5.23,5.23,0,0,1,.06-.57c0-.21.1-.42.16-.63a6.2,6.2,0,0,1,6-4.38H579a6.2,6.2,0,0,1-6-4.36,4.77,4.77,0,0,1-.17-.65,5.54,5.54,0,0,1-.07-.57v-15.87a6.09,6.09,0,0,1,5.51-5.53H557.75a6.12,6.12,0,0,1-6.25-5.58c0-.1,0-.2,0-.31v-15.25c0-.1,0-.21,0-.31s0-.16,0-.25a6,6,0,0,1,4.86-5.18,6.11,6.11,0,0,1-5.43-5c0-.17,0-.33-.05-.5s0-.21,0-.31v-15.26c0-.1,0-.2,0-.3s0-.38.06-.57a4.77,4.77,0,0,1,.17-.65,6.2,6.2,0,0,1,6-4.36h12.08a5.94,5.94,0,0,1-3.29-4.27,2.47,2.47,0,0,1,0-.38,2.28,2.28,0,0,1,0-.26c0-.1,0-.2,0-.31v-15.26c0-.1,0-.2,0-.3a5.51,5.51,0,0,1,.06-.57,6.45,6.45,0,0,1,.16-.63,6.2,6.2,0,0,1,6-4.38h23.65a6.19,6.19,0,0,1-6-4.38,4.34,4.34,0,0,1-.16-.62,3.68,3.68,0,0,1-.07-.58v-15.86a6.09,6.09,0,0,1,5.5-5.54H557.75a6.36,6.36,0,0,1-5.23-2.66l0-.14,3.92-24,0-.14,5.59-34.19a150.06,150.06,0,0,1,19.18,3.86l1.1.3.07,0q5.51,1.53,10.85,3.48l.1,0a143.49,143.49,0,0,1,44.94,26.36c.23.2.47.41.69.63a134.69,134.69,0,0,1,18.85,20.3q1.7,2.22,3.28,4.53c.36.51.71,1,1,1.53,0,0,0,0,0,0,1.71,2.53,3.33,5.11,4.86,7.77a133.1,133.1,0,0,1,9.17,19.21,128.59,128.59,0,0,1,7,26.36c0,.22.07.44.11.67A129.09,129.09,0,0,1,684.59,1512.49Z"/><circle class="cls-19" cx="510.27" cy="1498.54" r="142.39" transform="translate(-117.34 45.23) rotate(-4.55)"/><path class="cls-16" d="M573.48,1626.13q-2.64,1.61-5.35,3.1c-.62.34-1.23.68-1.84,1-1.41.75-2.81,1.47-4.23,2.17a142.39,142.39,0,0,1-131.41-252.56c1.83-1,3.67-2,5.52-2.88s3.6-1.75,5.42-2.56a142.76,142.76,0,0,1,17-6.29,141.12,141.12,0,0,1,25.78-5.2,142.41,142.41,0,0,1,89.15,263.22Z"/><path class="cls-17" d="M500.38,1633.65a128.1,128.1,0,0,1-35.63-5.08,126.83,126.83,0,1,1,35.63,5.08ZM500,1381.89a124.13,124.13,0,1,0,108.93,64.19A123.37,123.37,0,0,0,500,1381.89Z"/><path class="cls-17" d="M563,1518.4c-.28-.7-.58-1.38-.89-2a37.35,37.35,0,0,0-8.63-12.34,38.5,38.5,0,0,0-13.6-8,64.71,64.71,0,0,0-17.27-3.24q-9.54-.6-20.75-.27a99.47,99.47,0,0,1-11.84-.24,29.63,29.63,0,0,1-8.34-1.83,14.49,14.49,0,0,1-5.57-3.77,20.16,20.16,0,0,1-3.54-5.83,21.76,21.76,0,0,1-1.6-6.85,14.7,14.7,0,0,1,1-6.43,15.67,15.67,0,0,1,4-5.63,23.24,23.24,0,0,1,7.26-4.42q8.34-3.39,15.55.15t11.76,14.72l29-11.78a54.3,54.3,0,0,0-9.49-15.75,40.7,40.7,0,0,0-28.44-14,54,54,0,0,0-17.51,1.79l-8.21-20.23-16.06,6.52,8.1,19.95a60.25,60.25,0,0,0-14.74,10.49,45.06,45.06,0,0,0-9.29,13,36.09,36.09,0,0,0-3.42,14.64A42.87,42.87,0,0,0,453,1507a37.89,37.89,0,0,0,13.58,8,64.24,64.24,0,0,0,17.28,3.14,203.38,203.38,0,0,0,20.8,0,77.59,77.59,0,0,1,11.32.08,29.75,29.75,0,0,1,8.29,1.84,15.59,15.59,0,0,1,5.8,3.94,21.28,21.28,0,0,1,3.91,6.45,17.88,17.88,0,0,1,1.39,6.88,14.7,14.7,0,0,1-1.55,6.55,18.55,18.55,0,0,1-4.61,5.78,27.86,27.86,0,0,1-7.79,4.57,33.45,33.45,0,0,1-8.51,2.21,19.37,19.37,0,0,1-8.59-.86,19.91,19.91,0,0,1-7.84-5.07,30.68,30.68,0,0,1-6.35-10.29l-29,11.78q4.53,11.19,11.41,17.73a41.25,41.25,0,0,0,15,9.38,46.18,46.18,0,0,0,17.08,2.46,72.61,72.61,0,0,0,17.59-2.91l7.49,18.46,16-6.48L538.18,1572a65.12,65.12,0,0,0,14.9-10.4,43.93,43.93,0,0,0,9-11.73c.18-.34.35-.68.51-1a35.63,35.63,0,0,0,3.5-14.56A39.25,39.25,0,0,0,563,1518.4Z"/><rect class="cls-20" x="295.95" y="1000.41" width="497.76" height="7.19"/><rect class="cls-21" x="290.85" y="1007.6" width="507.96" height="7.19"/><rect class="cls-4" x="283.84" y="1014.8" width="521.97" height="7.19"/><rect class="cls-4" x="307.56" y="725.39" width="465.51" height="275.02"/><polygon class="cls-20" points="804.68 730.64 279.95 730.64 547.09 595.23 804.68 730.64"/><polygon class="cls-5" points="359.6 712.56 725.03 711.79 546.9 619.17 359.6 712.56"/><rect class="cls-4" x="293.64" y="730.64" width="499.89" height="11.59"/><rect class="cls-20" x="330.76" y="725.39" width="49.24" height="17.77"/><rect class="cls-20" x="341.81" y="743.16" width="27.14" height="257.25"/><rect class="cls-20" x="437.16" y="725.39" width="49.24" height="17.77"/><rect class="cls-20" x="448.21" y="743.16" width="27.14" height="257.25"/><rect class="cls-20" x="604.41" y="725.39" width="49.24" height="17.77"/><rect class="cls-20" x="615.46" y="743.16" width="27.14" height="257.25"/><rect class="cls-20" x="704.6" y="725.39" width="49.24" height="17.77"/><rect class="cls-20" x="715.65" y="743.16" width="27.14" height="257.25"/><path class="cls-20" d="M552.85,677.91a6.2,6.2,0,0,0-.32-2.19,4.48,4.48,0,0,0-1.12-1.73,8.76,8.76,0,0,0-2-1.45,23,23,0,0,0-3-1.31c-2.07-.76-3.94-1.55-5.63-2.37a19.27,19.27,0,0,1-4.31-2.83,11,11,0,0,1-2.76-3.7,12.65,12.65,0,0,1,0-9.58,10.67,10.67,0,0,1,2.6-3.57,13.24,13.24,0,0,1,4-2.44,17.81,17.81,0,0,1,5.18-1.15l.09-6.32,5.09.07-.09,6.42a15.68,15.68,0,0,1,4.94,1.52,12.38,12.38,0,0,1,3.75,2.89,12.23,12.23,0,0,1,2.34,4.15,16.14,16.14,0,0,1,.76,5.35l-9.19-.13a7.78,7.78,0,0,0-1.5-5.33,5.38,5.38,0,0,0-4.19-1.82,7.11,7.11,0,0,0-2.47.36,4.62,4.62,0,0,0-1.71,1.07,4.23,4.23,0,0,0-1,1.63,6,6,0,0,0-.35,2,5.65,5.65,0,0,0,.29,2,4.26,4.26,0,0,0,1.07,1.66,8.65,8.65,0,0,0,2,1.45,30.48,30.48,0,0,0,3.17,1.42q3.07,1.2,5.58,2.44a19.26,19.26,0,0,1,4.3,2.86,11.25,11.25,0,0,1,2.77,3.72,11.51,11.51,0,0,1,.92,5,11.33,11.33,0,0,1-1,4.65,10.39,10.39,0,0,1-2.61,3.54,12.61,12.61,0,0,1-4,2.36,19,19,0,0,1-5.22,1.11l-.08,5.88-5.06-.07.09-5.85a21.38,21.38,0,0,1-5.09-1.23,13.47,13.47,0,0,1-4.34-2.62,12.21,12.21,0,0,1-3-4.25,14.82,14.82,0,0,1-1.06-6.11l9.2.14a8.89,8.89,0,0,0,.53,3.51,6,6,0,0,0,1.54,2.27,5.71,5.71,0,0,0,2.23,1.21,10,10,0,0,0,2.55.38,8.1,8.1,0,0,0,2.63-.35,5.23,5.23,0,0,0,1.91-1,4.17,4.17,0,0,0,1.17-1.59A5.35,5.35,0,0,0,552.85,677.91Z"/><path class="cls-5" d="M538.1,894.91h6A29.86,29.86,0,0,1,574,924.76v75.64a0,0,0,0,1,0,0H506.41a0,0,0,0,1,0,0V926.6A31.69,31.69,0,0,1,538.1,894.91Z"/><path class="cls-5" d="M501,790.94h2.84A14.09,14.09,0,0,1,517.93,805v35.71a0,0,0,0,1,0,0H486a0,0,0,0,1,0,0V805.9A15,15,0,0,1,501,790.94Z"/><path class="cls-5" d="M407.59,790.94h2.84A14.09,14.09,0,0,1,424.53,805v35.71a0,0,0,0,1,0,0H392.63a0,0,0,0,1,0,0V805.9A15,15,0,0,1,407.59,790.94Z"/><path class="cls-5" d="M407.59,897.86h2.84a14.09,14.09,0,0,1,14.09,14.09v35.71a0,0,0,0,1,0,0H392.63a0,0,0,0,1,0,0V912.82A15,15,0,0,1,407.59,897.86Z"/><path class="cls-5" d="M678.14,790.94H681A14.09,14.09,0,0,1,695.07,805v35.71a0,0,0,0,1,0,0H663.18a0,0,0,0,1,0,0V805.9A15,15,0,0,1,678.14,790.94Z"/><path class="cls-5" d="M678.14,897.86H681a14.09,14.09,0,0,1,14.09,14.09v35.71a0,0,0,0,1,0,0H663.18a0,0,0,0,1,0,0V912.82A15,15,0,0,1,678.14,897.86Z"/><path class="cls-5" d="M581.63,790.94h2.84A14.09,14.09,0,0,1,598.57,805v35.71a0,0,0,0,1,0,0H566.67a0,0,0,0,1,0,0V805.9A15,15,0,0,1,581.63,790.94Z"/><rect class="cls-7" x="141.66" y="1646.95" width="2235.27" height="9.67" rx="3.23"/></g></g></svg>